<svg id="Layer_1" data-name="Layer 1" xmlns="http://www.w3.org/2000/svg" viewBox="0 0 732.76 216.55"><defs><style>.cls-1{fill:#fff;}</style></defs><title>logo-gago3-branca</title><path class="cls-1" d="M22.12,121.78q0-29.07,10-43.55T62.19,63.75q21.28,0,31.65,19.42L94.52,66h11.73V192.41q-.12,22.26-10.65,33.84T64.93,237.84a46.68,46.68,0,0,1-20.44-5q-10.31-5-15.65-12.16l5.92-9.08Q47.39,226,64,226q15.38,0,22.37-8.15t7.12-24.79V173.56q-10.36,17.61-31.42,17.6-19.24,0-29.43-14.42T22.12,135.07Zm12.75,11.47q0,23.63,7.17,34.75t22.54,11.13q20.49,0,28.92-19.42V96.91q-8.53-21-28.69-21-15.48,0-22.65,11T34.87,121Z" transform="translate(-22.12 -21.28)"/><path class="cls-1" d="M205.06,188.89q-1.71-5.89-2.28-17a40.55,40.55,0,0,1-14.63,14.25,38.77,38.77,0,0,1-19.41,5q-15.93,0-24.81-9t-8.88-25.55q0-18,12.35-28.61t34.09-10.68h21.18V100.21q0-13.18-6.55-18.91t-19.18-5.74q-11.73,0-19.24,6.82T150.19,100l-12.64-.12a33.53,33.53,0,0,1,11.39-25.6q11.37-10.5,28.57-10.51,18.56,0,28.12,9.32t9.56,27.14V160.5q0,18.06,3.3,27v1.36ZM170.34,179a34.53,34.53,0,0,0,19.75-5.79,33.78,33.78,0,0,0,12.58-15.44V127.91h-20q-17.31.24-26.07,7.67t-8.76,20Q147.8,179,170.34,179Z" transform="translate(-22.12 -21.28)"/><path class="cls-1" d="M376.72,167.43q-9,11.7-24.93,17.72t-36.2,6q-20.83,0-36.88-9.42a62.77,62.77,0,0,1-24.76-27q-8.72-17.55-9-40.94V100.89q0-37.48,18-58.54t50.21-21.07Q340.75,21.28,357,35t19.58,39.34H348.37q-4.77-29.87-34.72-29.86-19.35,0-29.42,13.9T273.81,99.13v12.71q0,26.78,11.33,41.58t31.47,14.81q22.09,0,31.42-10V125.87H313.88v-21.8h62.84Z" transform="translate(-22.12 -21.28)"/><path class="cls-1" d="M540.64,110.54q0,24.3-8.42,42.64t-24.08,28.16q-15.64,9.82-36,9.82-20.14,0-35.91-9.82t-24.36-28q-8.59-18.16-8.71-41.9v-9.31q0-24.19,8.59-42.7T436,31.11q15.66-9.83,35.92-9.83T507.8,31Q523.45,40.71,532,58.93t8.65,42.41Zm-28.8-8.63q0-27.48-10.41-42.13T471.89,45.13q-18.67,0-29.2,14.59T431.93,101v9.54q0,27.26,10.64,42.13t29.54,14.87q19.13,0,29.43-14.53t10.3-42.47Z" transform="translate(-22.12 -21.28)"/><path class="cls-1" d="M570,159.82q7.74,0,12,4.37a15.18,15.18,0,0,1,4.22,11A14.61,14.61,0,0,1,582,185.88q-4.2,4.26-12,4.26-7.39,0-11.72-4.2A14.37,14.37,0,0,1,554,175.15a15.17,15.17,0,0,1,4.21-11Q562.39,159.82,570,159.82Z" transform="translate(-22.12 -21.28)"/><path class="cls-1" d="M620.1,30.59A10.27,10.27,0,0,1,622.26,24a7.39,7.39,0,0,1,6.15-2.73,7.55,7.55,0,0,1,6.2,2.73,10.09,10.09,0,0,1,2.22,6.58,9.84,9.84,0,0,1-2.22,6.53,7.62,7.62,0,0,1-6.2,2.67,7.46,7.46,0,0,1-6.15-2.67A10,10,0,0,1,620.1,30.59Zm14.57,158.3H621.92V66h12.75Z" transform="translate(-22.12 -21.28)"/><path class="cls-1" d="M664.84,121.21q0-26.56,12.06-42t32.9-15.45q20.94,0,33,15.22t12.12,41.9v13.06q0,27-12.12,42.13T710,191.16q-20.61,0-32.67-14.76t-12.52-40.65Zm12.75,12.66q0,21.21,8.59,33.35T710,179.35q15.59,0,23.85-11.68t8.36-33.46V121.16q0-21.21-8.65-33.4T709.8,75.56a27.39,27.39,0,0,0-23.34,11.91q-8.64,11.91-8.87,32.79Z" transform="translate(-22.12 -21.28)"/><path class="cls-1" d="M397.61,225.29" transform="translate(-22.12 -21.28)"/><path class="cls-1" d="M547.61,193.69c.42,2.56-65.81,23.69-150,23.67s-150.43-21.13-150-23.67c.39-2.37,59,12.13,148,12.33C486.9,206.23,547.2,191.27,547.61,193.69Z" transform="translate(-22.12 -21.28)"/></svg>